<?xml version="1.0" encoding="UTF-8"?>
<svg id="Layer_2" data-name="Layer 2" xmlns="http://www.w3.org/2000/svg" viewBox="0 0 703.06 646">
  <defs>
    <style>
      .cls-1 {
        fill: #fff;
      }

      .cls-2 {
        fill: #f9a800;
      }
    </style>
  </defs>
  <rect id="background" class="cls-2" width="703.06" height="646"/>
  <rect id="Box_top_1" data-name="Box top 1" class="cls-1" x="51" y="213" width="166" height="165.48"/>
  <rect id="Box_top_2" data-name="Box top 2" class="cls-1" x="269" y="213" width="165.17" height="163"/>
  <rect id="Box_Bottom_1" data-name="Box Bottom 1" class="cls-1" x="51.06" y="430.59" width="166" height="165.48"/>
  <rect id="Box_Bottom_2" data-name="Box Bottom 2" class="cls-1" x="269.06" y="430.59" width="166" height="165.48"/>
  <rect id="Box_Bottom_3" data-name="Box Bottom 3" class="cls-1" x="482.06" y="430.59" width="166" height="165.48"/>
  <g>
    <path class="cls-1" d="M53.61,138.09V57.33h17.36v63.28h63.28v17.47H53.61Z"/>
    <path class="cls-1" d="M156.53,138.09c-4.48,0-8.31-1.6-11.48-4.82-3.17-3.21-4.76-7.02-4.76-11.42v-24.86h48.72v-6.72h-48.72v-17.14h49.62c4.48,0,8.31,1.61,11.48,4.82,3.17,3.21,4.76,7.02,4.76,11.42v48.72h-49.62Zm4.59-17.14h27.89v-8.96h-31.58v8.96h3.7Z"/>
    <path class="cls-1" d="M225.97,163.73v-17.25h38.53v-8.4h-32.48c-4.48,0-8.33-1.6-11.54-4.82-3.21-3.21-4.82-7.02-4.82-11.42v-32.48c0-4.4,1.6-8.21,4.82-11.42s7.06-4.82,11.54-4.82h33.38c4.48,0,8.31,1.61,11.48,4.82,3.17,3.21,4.76,7.02,4.76,11.42v58.13c0,4.48-1.59,8.31-4.76,11.48-3.17,3.17-7,4.76-11.48,4.76h-39.42Zm10.53-42.78h28v-30.69h-31.7v30.69h3.7Z"/>
    <path class="cls-1" d="M306.95,138.09c-4.41,0-8.21-1.6-11.42-4.82-3.21-3.21-4.82-7.02-4.82-11.42v-32.48c0-4.4,1.6-8.21,4.82-11.42,3.21-3.21,7.02-4.82,11.42-4.82h33.38c4.48,0,8.31,1.61,11.48,4.82,3.17,3.21,4.76,7.02,4.76,11.42v24.86h-48.72v6.72h48.72v17.14h-49.62Zm.9-38.86h31.58v-8.96h-31.58v8.96Z"/>
    <path class="cls-1" d="M367.54,138.09v-48.72c0-4.4,1.6-8.21,4.82-11.42,3.21-3.21,7.06-4.82,11.54-4.82h35.84v17.14h-35.06v47.82h-17.14Z"/>
    <path class="cls-1" d="M444.93,138.09c-4.48,0-8.31-1.6-11.48-4.82-3.17-3.21-4.76-7.02-4.76-11.42v-24.86h48.72v-6.72h-48.72v-17.14h49.62c4.48,0,8.3,1.61,11.48,4.82,3.17,3.21,4.76,7.02,4.76,11.42v48.72h-49.62Zm4.59-17.14h27.89v-8.96h-31.58v8.96h3.7Z"/>
    <path class="cls-1" d="M514.37,163.73v-17.25h38.53v-8.4h-32.48c-4.48,0-8.33-1.6-11.54-4.82-3.21-3.21-4.82-7.02-4.82-11.42v-32.48c0-4.4,1.6-8.21,4.82-11.42,3.21-3.21,7.06-4.82,11.54-4.82h33.38c4.48,0,8.31,1.61,11.48,4.82,3.17,3.21,4.76,7.02,4.76,11.42v58.13c0,4.48-1.59,8.31-4.76,11.48-3.17,3.17-7,4.76-11.48,4.76h-39.42Zm10.53-42.78h28v-30.69h-31.7v30.69h3.7Z"/>
    <path class="cls-1" d="M595.35,138.09c-4.41,0-8.21-1.6-11.42-4.82-3.21-3.21-4.82-7.02-4.82-11.42v-32.48c0-4.4,1.6-8.21,4.82-11.42,3.21-3.21,7.02-4.82,11.42-4.82h33.38c4.48,0,8.31,1.61,11.48,4.82,3.17,3.21,4.76,7.02,4.76,11.42v24.86h-48.72v6.72h48.72v17.14h-49.62Zm.9-38.86h31.58v-8.96h-31.58v8.96Z"/>
  </g>
</svg>