<?xml version="1.0" encoding="UTF-8"?><svg id="Layer_2" xmlns="http://www.w3.org/2000/svg" viewBox="0 0 240 40"><defs><style>.cls-1{fill:#f8a81b;}.cls-2{fill:#fff;}</style></defs><g id="Layer_1-2"><rect id="background" class="cls-1" width="240" height="40"/><g><rect class="cls-2" x="3.54" y="4.31" width="13.6" height="13.56"/><rect class="cls-2" x="21.38" y="4.41" width="13.53" height="13.35"/><rect class="cls-2" x="3.54" y="22.13" width="13.6" height="13.56"/><rect class="cls-2" x="21.39" y="22.13" width="13.6" height="13.56"/><rect class="cls-2" x="38.84" y="22.13" width="13.6" height="13.56"/></g><g id="Layer_3"><g><path class="cls-2" d="m60.33,28.01V4.51h5.06v18.41h18.5v5.09h-23.56Z"/><path class="cls-2" d="m90.4,28.01c-1.31,0-2.41-.47-3.34-1.4s-1.4-2.04-1.4-3.32v-7.24h14.22v-1.95h-14.22v-5h14.48c1.31,0,2.41.47,3.34,1.4s1.4,2.04,1.4,3.32v14.16h-14.48v.03Zm1.34-5h8.14v-2.62h-9.22v2.62h1.08Z"/><path class="cls-2" d="m110.67,35.46v-5h11.25v-2.44h-9.48c-1.31,0-2.44-.47-3.37-1.4-.93-.93-1.4-2.04-1.4-3.32v-9.45c0-1.28.47-2.38,1.4-3.32.93-.93,2.06-1.4,3.37-1.4h9.74c1.31,0,2.41.47,3.34,1.4.93.93,1.4,2.04,1.4,3.32v16.9c0,1.31-.47,2.41-1.4,3.34-.93.93-2.04,1.4-3.34,1.4h-11.52v-.03Zm3.08-12.45h8.17v-8.9h-9.25v8.93h1.08v-.03Z"/><path class="cls-2" d="m134.34,28.01c-1.28,0-2.38-.47-3.34-1.4-.93-.93-1.4-2.04-1.4-3.32v-9.45c0-1.28.47-2.38,1.4-3.32.93-.93,2.06-1.4,3.34-1.4h9.74c1.31,0,2.41.47,3.34,1.4.93.93,1.4,2.04,1.4,3.32v7.24h-14.22v1.95h14.22v4.97h-14.48Zm.26-11.31h9.22v-2.62h-9.22v2.62Z"/><path class="cls-2" d="m152.02,28.01v-14.16c0-1.28.47-2.38,1.4-3.32.93-.93,2.06-1.4,3.37-1.4h10.47v4.97h-10.24v13.9h-5Z"/><path class="cls-2" d="m174.61,28.01c-1.31,0-2.41-.47-3.34-1.4s-1.4-2.04-1.4-3.32v-7.24h14.22v-1.95h-14.22v-5h14.48c1.31,0,2.41.47,3.34,1.4.93.93,1.4,2.04,1.4,3.32v14.16h-14.48v.03Zm1.37-5h8.14v-2.62h-9.22v2.62h1.08Z"/><path class="cls-2" d="m194.91,35.46v-5h11.25v-2.44h-9.48c-1.31,0-2.44-.47-3.37-1.4s-1.4-2.04-1.4-3.32v-9.45c0-1.28.47-2.38,1.4-3.32.93-.93,2.06-1.4,3.37-1.4h9.74c1.31,0,2.41.47,3.34,1.4.93.93,1.4,2.04,1.4,3.32v16.9c0,1.31-.47,2.41-1.4,3.34s-2.04,1.4-3.34,1.4h-11.52v-.03Zm3.08-12.45h8.17v-8.9h-9.25v8.93h1.08v-.03Z"/><path class="cls-2" d="m218.56,28.01c-1.28,0-2.38-.47-3.34-1.4-.93-.93-1.4-2.04-1.4-3.32v-9.45c0-1.28.47-2.38,1.4-3.32.93-.93,2.06-1.4,3.34-1.4h9.74c1.31,0,2.41.47,3.34,1.4s1.4,2.04,1.4,3.32v7.24h-14.22v1.95h14.25v4.97h-14.51Zm.26-11.31h9.22v-2.62h-9.22v2.62Z"/></g></g></g></svg>